<svg xmlns="http://www.w3.org/2000/svg" viewBox="0 0 400 240"><ellipse cx="200" cy="202" rx="160" ry="12" fill="#dccdbb"/><g transform="translate(31 66) rotate(-10 50 60)"><rect x="0" y="5" width="97" height="127" rx="12" fill="#d5bda3"/><rect width="97" height="127" rx="12" fill="#fffaf0"/><rect x="9" y="9" width="79" height="91" rx="7" fill="#eee2c8"/><path d="M18 73q35-13 62 0v17H18" fill="#b88a59"/><ellipse cx="50" cy="62" rx="6" ry="9" transform="rotate(35 50 62)" fill="#826242"/><path d="M53 31v14m-6-6 6 6 6-6" stroke="#afbd87" stroke-width="3" fill="none" stroke-linecap="round"/><circle cx="48" cy="113" r="4" fill="#b49b71"/></g><g transform="translate(146 44) rotate(4 50 65)"><rect x="0" y="5" width="103" height="137" rx="12" fill="#d5bda3"/><rect width="103" height="137" rx="12" fill="#fffaf0"/><rect x="9" y="9" width="85" height="101" rx="7" fill="#e1e7d4"/><path d="M18 86q35-13 65 0v15H18" fill="#b88a59"/><path d="M48 85V66m0 9q-17 0-14-14 14 0 14 14m0-5q16 0 16-15-17 1-16 15" fill="#6f935f" stroke="#6f935f" stroke-width="2"/><path d="M66 29l16 7-5 20-16-6zM63 38l-15 5 10 6 5-4" fill="#80a7a1"/><path d="M79 36q13-8 12 7l-11 6" stroke="#80a7a1" stroke-width="4" fill="none"/><path d="M49 51l-3 5m9-1-2 6" stroke="#80a7a1" stroke-width="2"/><circle cx="51" cy="124" r="4" fill="#b49b71"/></g><g transform="translate(265 57) rotate(11 50 65)"><rect x="0" y="5" width="102" height="133" rx="12" fill="#d5bda3"/><rect width="102" height="133" rx="12" fill="#fffaf0"/><rect x="9" y="9" width="84" height="98" rx="7" fill="#f1dfca"/><path d="M18 88q35-13 65 0v12H18" fill="#b88a59"/><path d="M53 89V48m0 31Q28 79 29 65q22-5 24 14m0-9q21 0 23-15-21-2-23 15" fill="#74945a" stroke="#74945a" stroke-width="2"/><g fill="#d89475"><circle cx="53" cy="28" r="11"/><circle cx="68" cy="40" r="11"/><circle cx="63" cy="56" r="11"/><circle cx="44" cy="56" r="11"/><circle cx="38" cy="39" r="11"/></g><circle cx="53" cy="43" r="10" fill="#efd390"/><circle cx="51" cy="120" r="4" fill="#b49b71"/></g><path d="M117 30l4-10 4 10 10 4-10 4-4 10-4-10-10-4z" fill="#d0aa6c"/><path d="M274 19l3-7 3 7 7 3-7 3-3 7-3-7-7-3z" fill="#afba8e"/></svg>
